# Exported from Wings 3D 1.5.3
mtllib torch.mtl
o Grim_Bear_Torch
#128 vertices, 156 faces
v 2.9914381e-2 7.2468924e-3 0.23666845
v 8.1651390e-2 7.2221917e-3 0.31480502
v 6.7213825e-2 -6.4848991e-2 0.28088821
v -8.0869675e-2 7.2221917e-3 0.31480502
v -2.9131294e-2 7.2468924e-3 0.23666845
v -2.9131294e-2 -3.1033719e-2 0.23666845
v -5.2251158e-2 -3.0650858e-2 0.39744262
v -6.6430738e-2 -6.4848991e-2 0.28088821
v 5.3034245e-2 -3.0650858e-2 0.39744262
v -5.2251158e-2 -0.10338347 0.36352580
v 5.3034245e-2 -0.10338347 0.36352580
v 2.9914381e-2 -3.1033719e-2 0.23666845
v 2.9914381e-2 -3.1035091e-2 -0.12682034
v -2.9131294e-2 7.2468924e-3 -0.12682034
v 2.9914381e-2 7.2468924e-3 -0.12682034
v 0.10059272 0.34565622 0.43651228
v 5.0491444e-2 0.32319641 0.52033277
v 5.0491444e-2 0.36811603 0.35269317
v -4.9709729e-2 0.32319641 0.52033277
v -9.9809630e-2 0.34565622 0.43651228
v 2.4622940e-2 0.30388595 0.38056243
v 3.6336565e-2 0.36176932 0.37637566
v 7.2281587e-2 0.34565622 0.43651228
v -2.3839853e-2 0.30388595 0.38056243
v -3.5553478e-2 0.36176932 0.37637566
v -4.8071249e-2 0.29302313 0.42110316
v -7.1498500e-2 0.34565622 0.43651228
v -2.3839853e-2 0.28216167 0.46164251
v -3.5553478e-2 0.32954175 0.49665028
v 2.4622940e-2 0.28216167 0.46164251
v 3.6336565e-2 0.32954175 0.49665028
v 4.8854336e-2 0.29302313 0.42110316
v 2.7537624e-2 -0.45415413 0.22066239
v 1.3964584e-2 -0.44806952 0.19795420
v -1.3181496e-2 -0.44806952 0.19795420
v -2.6754536e-2 -0.45415413 0.22066239
v -1.3181496e-2 -0.46023874 0.24337057
v 1.3964584e-2 -0.46023874 0.24337057
v 6.7191869e-2 0.40358625 0.39214295
v 6.7191869e-2 0.42996660 0.39921147
v 8.3892293e-2 0.39609919 0.42008357
v -1.6308881e-2 0.41107193 0.36420370
v -1.6308881e-2 0.43745229 0.37127222
v 1.7091968e-2 0.41107193 0.36420370
v -8.3109206e-2 0.39609919 0.42008357
v -8.3109206e-2 0.42247955 0.42715209
v -6.6408781e-2 0.40358625 0.39214295
v -6.6408781e-2 0.37363938 0.50390268
v -6.6408781e-2 0.40001974 0.51097120
v -8.3109206e-2 0.38112644 0.47596343
v 1.7091968e-2 0.36615369 0.53184330
v 1.7091968e-2 0.39253405 0.53891182
v -1.6308881e-2 0.36615369 0.53184330
v 8.3892293e-2 0.38112644 0.47596343
v 8.3892293e-2 0.40750680 0.48303195
v 6.7191869e-2 0.37363938 0.50390268
v 5.0491444e-2 0.41107193 0.36420370
v 5.0491444e-2 0.43745229 0.37127222
v 0.10059272 0.41499386 0.45509133
v 0.10059272 0.38861213 0.44802281
v 8.3892293e-2 0.42247955 0.42715209
v -4.9709729e-2 0.41107193 0.36420370
v -4.9709729e-2 0.43745229 0.37127222
v 1.7091968e-2 0.43745229 0.37127222
v -9.9809630e-2 0.38861213 0.44802281
v -9.9809630e-2 0.41499386 0.45509133
v -6.6408781e-2 0.42996660 0.39921147
v -4.9709729e-2 0.36615369 0.53184330
v -4.9709729e-2 0.39253405 0.53891182
v -8.3109206e-2 0.40750680 0.48303195
v 5.0491444e-2 0.36615369 0.53184330
v 5.0491444e-2 0.39253405 0.53891182
v -1.6308881e-2 0.39253405 0.53891182
v 6.7191869e-2 0.40001974 0.51097120
v 5.0491444e-2 0.49698512 0.38722339
v 6.7191869e-2 0.36062897 0.38063242
v 8.3892293e-2 0.48201237 0.44310326
v -4.9709729e-2 0.49698512 0.38722339
v -1.6308881e-2 0.36811603 0.35269317
v 1.7091968e-2 0.49698512 0.38722339
v -9.9809630e-2 0.47452531 0.47104388
v -8.3109206e-2 0.35314191 0.40857304
v -4.9709729e-2 0.36811603 0.35269317
v -6.6408781e-2 0.48949943 0.41516401
v -4.9709729e-2 0.45206688 0.55486299
v -6.6408781e-2 0.33068347 0.49239352
v -8.3109206e-2 0.46703963 0.49898312
v 5.0491444e-2 0.45206688 0.55486299
v 1.7091968e-2 0.32319641 0.52033277
v -1.6308881e-2 0.45206688 0.55486299
v 0.10059272 0.47452669 0.47104388
v 8.3892293e-2 0.33816916 0.46445290
v 6.7191869e-2 0.45955257 0.52692374
v 6.7191869e-2 0.48949943 0.41516401
v 6.6487898e-2 0.53976126 0.37000288
v 8.8519559e-2 0.52988372 0.40686320
v -1.6308881e-2 0.49698512 0.38722339
v -6.5704811e-2 0.53976126 0.37000288
v -2.1640117e-2 0.53976126 0.37000288
v -8.3109206e-2 0.48201237 0.44310326
v -0.13180117 0.51013139 0.48058384
v -0.10976951 0.52000755 0.44372352
v -6.6408781e-2 0.45955257 0.52692374
v -6.5704811e-2 0.48050014 0.59116480
v -8.7737844e-2 0.49037768 0.55430448
v 1.7091968e-2 0.45206688 0.55486299
v 6.6487898e-2 0.48050014 0.59116480
v 2.2423204e-2 0.48050014 0.59116480
v 8.3892293e-2 0.46703963 0.49898312
v 0.13258425 0.51013139 0.48058384
v 0.11055259 0.50025385 0.51744416
v 0.11055259 0.52000755 0.44372352
v 2.2423204e-2 0.53976126 0.37000288
v -8.7737844e-2 0.52988372 0.40686320
v -0.10976951 0.50025385 0.51744416
v -2.1640117e-2 0.48050014 0.59116480
v 8.8519559e-2 0.49037768 0.55430448
v -2.9131294e-2 -3.1035091e-2 -0.12682034
v 8.3892293e-2 0.35314191 0.40857304
v 1.7091968e-2 0.36811603 0.35269317
v -6.6408781e-2 0.36062897 0.38063242
v -8.3109206e-2 0.33816916 0.46445290
v -1.6308881e-2 0.32319641 0.52033277
v 6.7191869e-2 0.33068347 0.49239352
v 5.0491444e-2 0.32319641 0.52033277
v 5.0491444e-2 0.36811603 0.35269317
v -4.9709729e-2 0.32319641 0.52033277
v -9.9809630e-2 0.34565622 0.43651228
vt 2.0000000e-3 1.3200000e-2
vt 2.0000000e-3 0.90800000
vt 2.0000000e-3 0.97990000
vt 5.5200000e-2 1.3200000e-2
vt 5.5200000e-2 0.90800000
vt 5.5200000e-2 0.97990000
vt 0.11160000 1.3200000e-2
vt 0.11160000 0.90790000
vt 0.11160000 0.97980000
vt 0.16800000 1.3200000e-2
vt 0.16800000 0.90790000
vt 0.16800000 0.97980000
vt 0.22100000 1.3200000e-2
vt 0.22100000 0.90790000
vt 0.22100000 0.97980000
vt 0.27250000 1.3200000e-2
vt 0.27250000 0.90790000
vt 0.27250000 0.97980000
vt 0.32400000 1.3200000e-2
vt 0.32400000 0.90800000
vt 0.32400000 0.97990000
vt 0.33220000 0.86270000
vt 0.35590000 0.28850000
vt 0.35590000 0.38830000
vt 0.35590000 0.46590000
vt 0.35590000 0.61930000
vt 0.35590000 0.73380000
vt 0.35600000 0.28850000
vt 0.35600000 0.38830000
vt 0.35600000 0.46590000
vt 0.35600000 0.61930000
vt 0.35600000 0.73380000
vt 0.35610000 0.28850000
vt 0.35610000 0.38830000
vt 0.35610000 0.46590000
vt 0.35610000 0.61930000
vt 0.35610000 0.73380000
vt 0.35660000 0.28850000
vt 0.35660000 0.38830000
vt 0.35660000 0.46590000
vt 0.35660000 0.61930000
vt 0.35660000 0.73380000
vt 0.35680000 0.28850000
vt 0.35680000 0.38830000
vt 0.35680000 0.46590000
vt 0.35680000 0.61930000
vt 0.35680000 0.73380000
vt 0.39950000 0.74610000
vt 0.39950000 0.97920000
vt 0.45020000 0.28850000
vt 0.45020000 0.38830000
vt 0.45020000 0.46590000
vt 0.45020000 0.61930000
vt 0.45020000 0.73380000
vt 0.45170000 0.28850000
vt 0.45170000 0.38730000
vt 0.45170000 0.46540000
vt 0.45170000 0.61930000
vt 0.45170000 0.73380000
vt 0.45190000 0.28850000
vt 0.45190000 0.38780000
vt 0.45190000 0.46600000
vt 0.45190000 0.61930000
vt 0.45190000 0.73380000
vt 0.45210000 0.28850000
vt 0.45210000 0.38880000
vt 0.45210000 0.46700000
vt 0.45210000 0.61930000
vt 0.45210000 0.73380000
vt 0.45250000 0.28850000
vt 0.45250000 0.38710000
vt 0.45250000 0.46540000
vt 0.45250000 0.61930000
vt 0.45250000 0.73380000
vt 0.45260000 0.28850000
vt 0.45260000 0.38710000
vt 0.45260000 0.46530000
vt 0.45260000 0.61930000
vt 0.45260000 0.73380000
vt 0.53410000 0.74610000
vt 0.53410000 0.97920000
vt 0.54760000 0.28850000
vt 0.54760000 0.38830000
vt 0.54760000 0.46590000
vt 0.54760000 0.61930000
vt 0.54760000 0.73380000
vt 0.54770000 0.28850000
vt 0.54770000 0.38830000
vt 0.54770000 0.46590000
vt 0.54770000 0.61930000
vt 0.54770000 0.73380000
vt 0.54800000 0.28850000
vt 0.54800000 0.38830000
vt 0.54800000 0.46590000
vt 0.54800000 0.61930000
vt 0.54800000 0.73380000
vt 0.54810000 0.28850000
vt 0.54810000 0.38830000
vt 0.54810000 0.46590000
vt 0.54810000 0.61930000
vt 0.54810000 0.73380000
vt 0.54830000 0.28850000
vt 0.54830000 0.38830000
vt 0.54830000 0.46590000
vt 0.54830000 0.61930000
vt 0.54830000 0.73380000
vt 0.54850000 0.28850000
vt 0.54850000 0.38830000
vt 0.54850000 0.46590000
vt 0.54850000 0.61930000
vt 0.54850000 0.73380000
vt 0.55480000 0.24360000
vt 0.60140000 0.86270000
vt 0.63640000 0.38830000
vt 0.63640000 0.46590000
vt 0.63650000 0.38830000
vt 0.63650000 0.46590000
vt 0.63670000 0.38830000
vt 0.63670000 0.46590000
vt 0.63680000 0.38830000
vt 0.63680000 0.46590000
vt 0.63690000 0.38830000
vt 0.63690000 0.46590000
vt 0.63740000 0.38830000
vt 0.63740000 0.46590000
vt 0.64370000 3.7100000e-2
vt 0.65620000 0.24110000
vt 0.66300000 0.35970000
vt 0.66300000 0.97090000
vt 0.69980000 0.12190000
vt 0.73400000 0.35970000
vt 0.73400000 0.97090000
vt 0.82250000 0.35970000
vt 0.82250000 0.97090000
vt 0.84520000 0.11710000
vt 0.89340000 0.35970000
vt 0.89340000 0.97090000
vt 0.89560000 2.8700000e-2
vt 0.89670000 0.23300000
vt 0.99810000 0.22880000
vn 0.73513953 0.63242404 -0.24415100
vn 0.85630211 0.51265906 6.2668868e-2
vn 0.91397123 -4.6921095e-2 -0.40305707
vn -0.57585261 0.81719178 -2.4318073e-2
vn -0.51523738 0.84290891 -0.15503230
vn -0.95378763 3.0392614e-2 -0.29894055
vn -0.75679764 5.5261447e-2 0.65130907
vn -0.99230220 -8.3594213e-2 -9.1369353e-2
vn 0.29953862 0.26566521 0.91635070
vn -0.41701288 -0.38412770 0.82373914
vn 0.79652144 -0.31990879 0.51304187
vn 0.93925103 0.0000000e+0 -0.34323097
vn 1.00000000 0.0000000e+0 0.0000000e+0
vn -0.89442719 0.44721360 0.0000000e+0
vn 0.44721360 0.89442719 0.0000000e+0
vn 0.91855570 -0.29575014 -0.26227331
vn -1.7722740e-6 -0.96592479 -0.25882290
vn -4.4306110e-7 -0.96592473 -0.25882315
vn 8.8615184e-7 -0.96592493 -0.25882241
vn 8.8615184e-7 -0.96592466 -0.25882340
vn 0.64048929 -6.0158541e-3 -0.76794354
vn 0.30336621 -0.12967230 -0.94400955
vn 0.90664069 -0.32466558 -0.26943444
vn -0.32013703 4.3798396e-2 -0.94635827
vn -0.60673432 -0.17880861 -0.77453273
vn -0.95988122 -0.15497521 -0.23368939
vn -0.90437630 -0.42169563 6.5393423e-2
vn -0.63901903 -0.40288165 0.65524122
vn -0.30028055 -0.61374135 0.73017337
vn 0.31962307 -0.45236537 0.83259033
vn 0.60055685 -0.56586405 0.56491534
vn 0.95939418 -0.25427434 0.12209570
vn 0.98162294 2.2820130e-2 -0.18946145
vn 0.32720891 0.21861299 -0.91931643
vn -0.65441992 0.16966438 -0.73685044
vn -0.98161945 -7.5075206e-2 0.17546216
vn -0.32720563 -0.27086356 0.90530073
vn 0.65440856 -0.22191727 0.72284311
vn 0.86601878 0.12941194 -0.48297413
vn 0.86602266 0.12941023 -0.48296765
vn 0.86602173 0.12941184 -0.48296887
vn 0.0000000e+0 0.25881988 -0.96592560
vn 0.0000000e+0 0.25881384 -0.96592722
vn 0.0000000e+0 0.25882194 -0.96592505
vn -0.86602011 0.12940978 -0.48297233
vn -0.86602319 0.12941055 -0.48296661
vn -0.86603188 0.12940730 -0.48295190
vn -0.86603709 -0.12940110 0.48294422
vn -0.86603135 -0.12940633 0.48295311
vn -0.86602319 -0.12941119 0.48296644
vn 0.0000000e+0 -0.25881795 0.96592612
vn 0.0000000e+0 -0.25881384 0.96592722
vn 0.0000000e+0 -0.25881885 0.96592588
vn 0.86602441 -0.12940785 0.48296514
vn 0.86602227 -0.12941040 0.48296830
vn 0.86602120 -0.12940920 0.48297053
vn 0.49999231 0.22414731 -0.83651998
vn 0.49999154 0.22413974 -0.83652246
vn 1.00000000 1.5407181e-6 -8.2696050e-6
vn 1.00000000 1.7609102e-6 -8.8821667e-6
vn 0.86601945 0.12940851 -0.48297386
vn -0.50000695 0.22414718 -0.83651126
vn -0.50000982 0.22413964 -0.83651157
vn 0.0000000e+0 0.25881482 -0.96592696
vn -1.00000000 2.9160665e-6 -8.5726468e-6
vn -1.00000000 2.5710045e-6 -7.0761009e-6
vn -0.86603213 0.12940699 -0.48295153
vn -0.50001345 -0.22413990 0.83650933
vn -0.50001554 -0.22413615 0.83650908
vn -0.86602507 -0.12940599 0.48296445
vn 0.50000014 -0.22414449 0.83651606
vn 0.49999727 -0.22414151 0.83651857
vn 0.0000000e+0 -0.25881482 0.96592696
vn 0.86602375 -0.12941075 0.48296556
vn 0.48376515 -0.14091235 -0.86377948
vn 0.86601697 0.12941694 -0.48297605
vn 0.84674135 -7.6173693e-2 -0.52652318
vn -0.44910146 -0.13574499 -0.88310882
vn 0.0000000e+0 0.25883017 -0.96592285
vn 0.0000000e+0 5.0354702e-2 -0.99873140
vn -0.93286077 -0.34224435 -0.11242588
vn -0.86601697 0.12941694 -0.48297605
vn -0.61238207 -0.15849034 -0.77451212
vn -0.84675750 -7.6188157e-2 -0.52649512
vn -0.48377401 -0.55393278 0.67758481
vn -0.86603972 -0.12939954 0.48293992
vn -0.84673386 -0.32923709 0.41790515
vn 0.44909214 -0.55910903 0.69693138
vn 0.0000000e+0 -0.25882246 0.96592491
vn 0.0000000e+0 -0.45575525 0.89010514
vn 0.93286043 -0.35260778 -7.3750775e-2
vn 0.86602689 -0.12941249 0.48295945
vn 0.84673454 -0.32922938 0.41790984
vn 0.78606114 -0.28794122 -0.54698971
vn 0.49825304 -0.47763589 -0.72360753
vn 0.69227226 -0.47692059 -0.54157721
vn 0.0000000e+0 -0.17047178 -0.98536256
vn -0.24912282 -0.44039247 -0.86254988
vn 0.0000000e+0 -0.37344725 -0.92765142
vn -0.78606096 -0.28794198 -0.54698957
vn -0.74738097 -0.58931086 -0.30681329
vn -0.69228351 -0.47691767 -0.54156540
vn -0.78605921 -0.52286407 0.32973334
vn -0.49824750 -0.77545602 0.38783681
vn -0.69227537 -0.68381011 0.23056134
vn 0.0000000e+0 -0.64032723 0.76810223
vn 0.24912558 -0.81268856 0.52675777
vn 0.0000000e+0 -0.78726128 0.61661956
vn 0.78605750 -0.52286509 0.32973583
vn 0.74737137 -0.66377521 -2.8956833e-2
vn 0.69227978 -0.68381378 0.23053722
vn 0.69228368 -0.47692031 -0.54156285
vn 0.0000000e+0 -0.37344725 -0.92765142
vn -0.69228248 -0.47691813 -0.54156631
vn -0.69227836 -0.68380565 0.23056563
vn 0.0000000e+0 -0.78726128 0.61661956
vn 0.69227694 -0.68380754 0.23056428
vn -1.00000000 0.0000000e+0 0.0000000e+0
vn 0.86601564 0.12941561 -0.48297879
vn 0.0000000e+0 0.25883017 -0.96592285
vn -0.86603609 0.12940644 -0.48294458
vn -0.86602822 -0.12940997 0.48295775
vn 0.0000000e+0 -0.25882246 0.96592491
vn 0.86601830 -0.12940388 0.48297717
vn 0.65464992 -0.19564824 0.73017481
vn 0.32732300 0.24457187 -0.91271258
vn -0.32733260 -0.24456372 0.91271132
vn -0.98198196 -4.8910889e-2 0.18253534
g Grim_Bear_Torch_Material__640
usemtl Material__640
s 1
f 1/133/1 4/127/4 2/139/2
f 1/133/1 5/131/5 4/127/4
f 1/133/1 15/134/15 5/131/5
f 2/139/2 3/140/3 1/133/1
f 2/139/2 11/138/11 3/140/3
f 3/140/3 12/136/12 1/133/1
f 4/127/4 8/112/8 7/130/7
f 4/127/4 9/135/9 2/139/2
f 5/131/5 6/128/6 4/127/4
f 5/131/5 14/132/14 6/128/6
f 5/131/5 15/134/15 14/132/14
f 6/128/6 8/112/8 4/127/4
f 7/130/7 9/135/9 4/127/4
f 7/130/7 10/126/10 9/135/9
f 8/112/8 10/126/10 7/130/7
f 9/135/9 11/138/11 2/139/2
f 10/126/10 11/138/11 9/135/9
f 12/136/12 13/137/13 1/133/1
f 13/137/13 15/134/15 1/133/1
f 14/132/14 118/129/118 6/128/6
f 16/65/16 119/92/119 41/93/41
f 17/80/17 18/22/18 16/48/16
f 17/80/17 19/113/19 18/22/18
f 19/113/19 20/81/20 18/22/18
f 20/81/20 83/49/83 18/22/18
f 21/17/21 24/20/24 22/18/22
f 21/17/21 34/16/34 24/20/24
f 22/18/22 23/15/23 21/17/21
f 23/15/23 32/14/32 21/17/21
f 24/20/24 25/21/25 22/18/22
f 24/2/24 26/5/26 25/3/25
f 24/2/24 35/1/35 26/5/26
f 26/5/26 27/6/27 25/3/25
f 26/5/26 28/8/28 27/6/27
f 26/5/26 36/4/36 28/8/28
f 28/8/28 29/9/29 27/6/27
f 28/8/28 30/11/30 29/9/29
f 28/8/28 37/7/37 30/11/30
f 30/11/30 31/12/31 29/9/29
f 30/11/30 32/14/32 31/12/31
f 30/11/30 38/10/38 32/14/32
f 31/12/31 32/14/32 23/15/23
f 32/14/32 33/13/33 21/17/21
f 32/14/32 38/10/38 33/13/33
f 33/13/33 34/16/34 21/17/21
f 34/16/34 35/19/35 24/20/24
f 35/1/35 36/4/36 26/5/26
f 36/4/36 37/7/37 28/8/28
f 37/7/37 38/10/38 30/11/30
f 39/34/39 58/62/58 40/35/40
f 39/34/39 76/33/76 57/61/57
f 40/121/40 41/93/41 39/120/39
f 40/121/40 61/94/61 41/93/41
f 41/93/41 60/66/60 16/65/16
f 41/93/41 61/94/61 60/66/60
f 42/44/42 63/77/63 43/45/43
f 42/44/42 79/43/79 62/76/62
f 43/117/43 44/88/44 42/116/42
f 43/117/43 64/89/64 44/88/44
f 44/88/44 64/89/64 57/61/57
f 44/88/44 126/60/126 120/87/120
f 45/24/45 66/57/66 46/25/46
f 45/24/45 82/23/82 65/56/65
f 46/125/46 47/108/47 45/124/45
f 46/125/46 67/109/67 47/108/47
f 47/108/47 67/109/67 62/76/62
f 48/39/48 69/72/69 49/40/49
f 48/39/48 86/38/86 68/71/68
f 49/115/49 50/83/50 48/114/48
f 49/115/49 70/84/70 50/83/50
f 50/83/50 70/84/70 65/56/65
f 50/83/50 128/55/128 122/82/122
f 51/29/51 72/52/72 52/30/52
f 51/29/51 89/28/89 71/51/71
f 52/123/52 53/103/53 51/122/51
f 52/123/52 73/104/73 53/103/53
f 53/103/53 73/104/73 68/71/68
f 53/103/53 127/70/127 123/102/123
f 54/34/54 59/67/59 55/35/55
f 54/34/54 60/66/60 59/67/59
f 54/34/54 92/33/92 60/66/60
f 55/119/55 56/98/56 54/118/54
f 55/119/55 74/99/74 56/98/56
f 56/98/56 74/99/74 71/51/71
f 56/98/56 125/50/125 124/97/124
f 57/61/57 58/62/58 39/34/39
f 57/61/57 64/89/64 58/62/58
f 57/61/57 126/60/126 44/88/44
f 58/62/58 75/63/75 40/35/40
f 58/62/58 80/90/80 75/63/75
f 59/67/59 91/68/91 55/35/55
f 60/66/60 61/94/61 59/67/59
f 60/66/60 92/33/92 16/65/16
f 61/94/61 77/95/77 59/67/59
f 62/76/62 63/77/63 42/44/42
f 62/76/62 67/109/67 63/77/63
f 62/76/62 83/75/83 47/108/47
f 63/77/63 78/78/78 43/45/43
f 63/77/63 84/110/84 78/78/78
f 64/89/64 80/90/80 58/62/58
f 65/56/65 66/57/66 45/24/45
f 65/56/65 70/84/70 66/57/66
f 65/56/65 128/55/128 50/83/50
f 66/57/66 81/58/81 46/25/46
f 66/57/66 87/85/87 81/58/81
f 67/109/67 84/110/84 63/77/63
f 68/71/68 69/72/69 48/39/48
f 68/71/68 73/104/73 69/72/69
f 68/71/68 127/70/127 53/103/53
f 69/72/69 85/73/85 49/40/49
f 69/72/69 90/105/90 85/73/85
f 70/84/70 87/85/87 66/57/66
f 71/51/71 72/52/72 51/29/51
f 71/51/71 74/99/74 72/52/72
f 71/51/71 125/50/125 56/98/56
f 72/52/72 88/53/88 52/30/52
f 72/52/72 93/100/93 88/53/88
f 73/104/73 90/105/90 69/72/69
f 74/99/74 93/100/93 72/52/72
f 75/63/75 94/36/94 40/35/40
f 75/63/75 95/64/95 94/36/94
f 75/63/75 113/91/113 95/64/95
f 76/33/76 126/60/126 57/61/57
f 77/95/77 91/68/91 59/67/59
f 77/95/77 112/96/112 91/68/91
f 78/78/78 97/46/97 43/45/43
f 78/78/78 98/79/98 97/46/97
f 78/78/78 114/111/114 98/79/98
f 79/43/79 83/75/83 62/76/62
f 80/90/80 113/91/113 75/63/75
f 81/58/81 100/26/100 46/25/46
f 81/58/81 101/59/101 100/26/100
f 81/58/81 115/86/115 101/59/101
f 82/23/82 128/55/128 65/56/65
f 83/75/83 121/107/121 47/108/47
f 84/110/84 114/111/114 78/78/78
f 85/73/85 103/41/103 49/40/49
f 85/73/85 104/74/104 103/41/103
f 85/73/85 116/106/116 104/74/104
f 86/38/86 127/70/127 68/71/68
f 87/85/87 115/86/115 81/58/81
f 88/53/88 106/31/106 52/30/52
f 88/53/88 107/54/107 106/31/106
f 88/53/88 117/101/117 107/54/107
f 89/28/89 125/50/125 71/51/71
f 90/105/90 116/106/116 85/73/85
f 91/68/91 109/36/109 55/35/55
f 91/68/91 110/69/110 109/36/109
f 91/68/91 112/96/112 110/69/110
f 93/100/93 117/101/117 88/53/88
f 95/64/95 96/37/96 94/36/94
f 98/79/98 99/47/99 97/46/97
f 101/59/101 102/27/102 100/26/100
f 104/74/104 105/42/105 103/41/103
f 107/54/107 108/32/108 106/31/106
f 110/69/110 111/37/111 109/36/109
