# Exported from Wings 3D 1.5.3
mtllib ceiling_cube.mtl
o Cube1
#8 vertices, 6 faces
v -14.00000000 -1.00000000 -14.00000000
v -14.00000000 -1.00000000 14.00000000
v -14.00000000 1.00000000 -14.00000000
v -14.00000000 1.00000000 14.00000000
v 14.00000000 -1.00000000 -14.00000000
v 14.00000000 -1.00000000 14.00000000
v 14.00000000 1.00000000 -14.00000000
v 14.00000000 1.00000000 14.00000000
vt -7.00000000 -7.00000000
vt -7.00000000 8.00000000
vt 8.00000000 -7.00000000
vt 8.00000000 8.00000000
vn -0.57735027 -0.57735027 -0.57735027
vn -0.57735027 -0.57735027 0.57735027
vn -0.57735027 0.57735027 -0.57735027
vn -0.57735027 0.57735027 0.57735027
vn 0.57735027 -0.57735027 -0.57735027
vn 0.57735027 -0.57735027 0.57735027
vn 0.57735027 0.57735027 -0.57735027
vn 0.57735027 0.57735027 0.57735027
g Cube1_Cube1_auv
usemtl Cube1_auv
s 1
f 1/4/1 5/2/5 6/1/6 2/3/2
g Cube1_default
usemtl default
s 1
f 2//2 4//4 3//3 1//1
f 2//2 6//6 8//8 4//4
f 3//3 7//7 5//5 1//1
f 4//4 8//8 7//7 3//3
f 5//5 7//7 8//8 6//6
