# Exported from Wings 3D 1.5.3
mtllib wall_cube.mtl
o Cube1
#8 vertices, 6 faces
v -1.00000000 -1.00000000 -1.00000000
v -1.00000000 -1.00000000 1.00000000
v -1.00000000 1.00000000 -1.00000000
v -1.00000000 1.00000000 1.00000000
v 1.00000000 -1.00000000 -1.00000000
v 1.00000000 -1.00000000 1.00000000
v 1.00000000 1.00000000 -1.00000000
v 1.00000000 1.00000000 1.00000000
vt -1.1102230e-16 1.0461025e-3
vt -1.1102230e-16 0.99895390
vt 0.0000000e+0 4.4408921e-16
vt 0.0000000e+0 1.00000000
vt 6.4055301e-20 1.0461025e-3
vt 2.2204460e-16 0.99895390
vt 3.8864211e-16 0.99895390
vt 1.0461025e-3 0.0000000e+0
vt 1.0461025e-3 1.00000000
vt 1.0461025e-3 0.0000000e+0
vt 1.0461025e-3 0.0000000e+0
vt 1.0461025e-3 1.00000000
vt 0.99895390 2.2204460e-16
vt 0.99895390 1.00000000
vt 0.99895390 -2.2204460e-16
vt 0.99895390 1.00000000
vt 0.99895390 1.00000000
vt 1.00000000 1.0461025e-3
vt 1.00000000 0.99895390
vt 1.00000000 4.4408921e-16
vt 1.00000000 1.0461025e-3
vt 1.00000000 0.99895390
vt 1.00000000 1.00000000
vt 1.00000000 1.0461025e-3
vn -0.57735027 -0.57735027 -0.57735027
vn -0.57735027 -0.57735027 0.57735027
vn -0.57735027 0.57735027 -0.57735027
vn -0.57735027 0.57735027 0.57735027
vn 0.57735027 -0.57735027 -0.57735027
vn 0.57735027 -0.57735027 0.57735027
vn 0.57735027 0.57735027 -0.57735027
vn 0.57735027 0.57735027 0.57735027
g Cube1_wall_ceiling
usemtl wall_ceiling
s 1
f 1/23/1 5/4/5 6/3/6 2/20/2
g Cube1_wall_floor
usemtl wall_floor
s 1
f 4/18/4 8/14/8 7/2/7 3/8/3
g Cube1_wall_side
usemtl wall_side
s 1
f 2/22/2 4/13/4 3/1/3 1/12/1
f 2/9/2 6/19/6 8/15/8 4/5/4
f 3/10/3 7/24/7 5/16/5 1/7/1
f 5/6/5 7/11/7 8/21/8 6/17/6
